# xmcd
#
# Track frame offsets:
#	150
#	13842
#	27987
#	42274
#	60860
#	72566
#	87858
#	101247
#	117682
#	134750
#	147678
#	162449
#	176541
#	190492
#
# Disc length: 2689 seconds
#
# Revision: 1
# Processed by: cddbd v1.5.2PL0 Copyright (c) Steve Scherf et al.
# Submitted via: audiograbber 1.83.01
#
DISCID=d80a7f0e
DTITLE=Various Artist - Succession
DYEAR=2009
DGENRE=Country
TTITLE0=Wicked Wildcats - Jacky Joker
TTITLE1=Tina Marie Johnson - Many Kind Of Kisses
TTITLE2=Aage "Oagee" Nordheim - Pay Me The Way
TTITLE3=Evy - Hold Me Tight
TTITLE4=Stan Silver - Dreams Of You
TTITLE5=Anna Reif - My Honey Needs No Money
TTITLE6=Dean Wolf - My Guitar And Me
TTITLE7=Ivonne Malin - Wenn A Woman Loves A Man
TTITLE8=Solitude - His Belly's Full Of Beer
TTITLE9=Wild Brunch - Pockerface And Babysmile
TTITLE10=Alojz Vogel - Without Your Love
TTITLE11=Kim West - I Got What It Takes
TTITLE12=Cherie - Let Me Be Your Hero
TTITLE13=Laco - This Award Goes To You
EXTD=Sehr gute Cover der Songs von Ernie Oldfield
EXTT0=
EXTT1=
EXTT2=
EXTT3=
EXTT4=
EXTT5=
EXTT6=
EXTT7=
EXTT8=
EXTT9=
EXTT10=
EXTT11=
EXTT12=
EXTT13=
PLAYORDER=
